<?xml version="1.0" encoding="UTF-8"?>
<svg width="14px" height="14px" viewBox="0 0 14 14" version="1.1" xmlns="http://www.w3.org/2000/svg" xmlns:xlink="http://www.w3.org/1999/xlink">
    <title>chat@3x</title>
    <g id="页面-1" stroke="none" stroke-width="1" fill="none" fill-rule="evenodd" opacity="0.599795387">
        <g id="Me" transform="translate(-67, -734)" fill="#FFFFFF" fill-rule="nonzero">
            <g id="编组-7备份-2" transform="translate(28, 720)">
                <g id="编组-16" transform="translate(39, 9)">
                    <path d="M7,5 C10.8675,5 14,8.1332255 14,11.9994041 C14,15.8655827 10.8675,19 7,19 L0.8435,19 C0.581,18.9666298 0.379166667,18.7485315 0.379166667,18.4779944 C0.394423075,18.3725922 0.42717064,18.2706215 0.476,18.1764706 C0.880833333,17.729548 1.12816667,17.1396101 1.12816667,16.4912744 C1.12816667,16.0538861 1.015,15.6391419 0.816666667,15.2816038 C0.295166667,14.3019494 0,13.1864306 0,12.0005959 C0,8.1344173 3.13483333,5 7,5 Z M6.98437087,10.5684693 C6.28279961,9.73496829 5.50539686,9.48524464 4.65216262,9.81929838 C3.37231125,10.320379 3.21628409,11.9643699 3.90037056,12.8296946 C4.30162001,13.3372489 5.14560231,14.0872616 6.43231747,15.0797325 L6.69555783,15.2814671 C6.869467,15.4128905 7.10810537,15.4177914 7.28726376,15.2936191 C8.69213464,14.3152834 9.63147798,13.4943603 10.1044931,12.8296946 C10.8636897,11.7628957 10.4899696,10.3429337 9.32501986,9.81929838 C8.54838667,9.47020816 7.76817034,9.71993181 6.98437087,10.5684693 Z" id="chat"></path>
                </g>
            </g>
        </g>
    </g>
</svg>