<?xml version="1.0" encoding="UTF-8"?>
<svg width="46px" height="46px" viewBox="0 0 46 46" version="1.1" xmlns="http://www.w3.org/2000/svg" xmlns:xlink="http://www.w3.org/1999/xlink">
    <title>hangout@3x</title>
    <g id="页面-1" stroke="none" stroke-width="1" fill="none" fill-rule="evenodd">
        <g id="Me3" transform="translate(-278, -58)">
            <g id="编组-91" transform="translate(278, 58)">
                <circle id="椭圆形" fill="#FE453A" cx="23" cy="23" r="23"></circle>
                <path d="M13.7412837,19.6784643 C15.5492616,18.2670709 17.7840731,17.773494 23,17.773494 C28.2159269,17.773494 30.3232395,18.2666221 32.1317922,19.6784643 C32.7016428,20.013464 33.5400776,21.033252 33.8232996,22.0316885 C33.8936356,22.6276433 33.946498,23.7435716 33.9818867,25.3794735 L33.9818997,25.3794733 C33.9935055,25.9316361 33.5552975,26.3886608 33.0031347,26.4002666 C33.0000522,26.4003314 32.9969695,26.4003819 32.9938865,26.4004182 C32.0005825,26.4132249 31.0599511,26.3444342 30.1719922,26.1940328 C29.230769,26.0346095 28.3160272,25.7780516 27.4277668,25.4243591 L27.4281744,25.4233437 C27.0232772,25.2608354 26.7704719,24.8545832 26.803524,24.4195451 L26.9284149,22.7729399 C26.9686448,22.2365948 26.5774325,21.7644996 26.0429485,21.7044041 C25.0286458,21.5918391 24.0143229,21.5356465 23,21.5356465 C21.9882812,21.5356465 20.9765625,21.5915509 19.9648437,21.7033599 L19.964876,21.7036453 C19.4278657,21.7643874 19.0362766,22.2408001 19.080647,22.7794103 L19.2223341,24.4453808 C19.2583737,24.8730295 19.0175233,25.2759904 18.6238019,25.4467703 C17.7918888,25.8069638 16.8922975,26.0558828 15.9252473,26.1940328 C15.0052325,26.3254635 14.0395002,26.3895808 13.0280504,26.3863846 L13.0280504,26.3863856 C12.4757677,26.3849039 12.0292552,25.935989 12.0307369,25.3837063 C12.0307694,25.3715971 12.0310219,25.3594895 12.0314941,25.3473895 C12.0931583,23.8463875 12.211523,22.7598231 12.386668,22.0876993 C12.7052266,20.865222 13.2713404,20.0257049 13.7412837,19.6784643 Z" id="矩形" fill="#FFFFFF"></path>
            </g>
        </g>
    </g>
</svg>