<svg xmlns="http://www.w3.org/2000/svg" viewBox="0 0 10 10"><path transform="translate(0.00 0.00)" fill-rule="evenodd" fill="#f964ff" d="M5.03 3.46C5.20 3.53 5.35 3.61 5.49 3.70C5.74 3.86 5.87 3.97 6.06 4.18C6.46 4.64 6.73 5.29 6.78 5.92C6.81 6.29 6.68 6.77 6.55 7.07C6.28 7.73 5.85 8.20 5.19 8.52C4.87 8.67 4.50 8.79 4.09 8.81C3.50 8.86 2.72 8.57 2.25 8.20C1.63 7.72 1.24 6.94 1.17 6.12C1.13 5.61 1.37 4.93 1.65 4.51C1.69 4.44 1.74 4.37 1.79 4.31C1.84 4.24 1.90 4.16 1.95 4.11C2.20 3.86 2.43 3.69 2.77 3.53C3.11 3.36 3.45 3.27 3.88 3.23C4.24 3.20 4.75 3.34 5.03 3.46ZM6.32 2.79C6.26 2.76 6.18 2.69 6.12 2.65C5.67 2.36 5.20 2.18 4.66 2.10L4.37 2.06C4.32 2.07 3.96 2.06 3.87 2.06C3.71 2.06 3.55 2.07 3.39 2.09C3.10 2.12 2.84 2.19 2.58 2.28C2.07 2.46 1.67 2.74 1.34 3.03C0.54 3.76 0.11 4.50 0.01 5.67C-0.02 6.34 0.01 6.85 0.23 7.45C0.38 7.85 0.68 8.37 0.99 8.68C1.39 9.06 1.55 9.26 2.10 9.56C2.32 9.68 2.55 9.77 2.81 9.84C2.94 9.89 3.08 9.92 3.22 9.94C3.31 9.95 3.61 9.97 3.66 9.99L4.33 9.99C4.39 9.97 4.56 9.96 4.64 9.95C4.73 9.94 4.83 9.92 4.92 9.90C5.09 9.87 5.28 9.81 5.44 9.75C5.83 9.59 6.38 9.28 6.67 8.97C6.72 8.91 6.78 8.85 6.84 8.80C7.01 8.63 7.16 8.46 7.30 8.26C7.83 7.46 8.02 6.64 7.94 5.57C7.90 5.17 7.81 4.82 7.67 4.49C7.61 4.33 7.53 4.18 7.45 4.04C7.41 3.97 7.37 3.90 7.32 3.83C7.28 3.78 7.21 3.68 7.19 3.63C7.31 3.50 7.46 3.37 7.60 3.23L10.22 0.59L9.48 -0.23C9.48 -0.23 6.36 2.76 6.32 2.79ZM5.99 1.47H9.99A0.50 0.50 0 0 1 10.49 1.97V1.97A0.50 0.50 0 0 1 9.99 2.47H5.99A0.50 0.50 0 0 1 5.49 1.97V1.97A0.50 0.50 0 0 1 5.99 1.47Z"/></svg>