<svg xmlns="http://www.w3.org/2000/svg" viewBox="0 0 8 10"><path transform="translate(0.00 0.00)" fill-rule="evenodd" fill="#5fc1fd" d="M4.01 10.00L4.00 10.00C3.83 10.00 3.66 9.93 3.54 9.80C3.44 9.70 2.59 8.79 1.74 7.65C0.58 6.11 0.00 4.88 0.00 4.00C0.00 1.79 1.79 0.00 4.00 0.00C6.21 0.00 8.00 1.79 8.00 4.00C8.00 4.53 7.79 5.18 7.38 5.95C7.00 6.67 6.41 7.52 5.63 8.46L5.62 8.47L4.47 9.78C4.36 9.92 4.19 10.00 4.01 10.00ZM4.00 5.86C5.04 5.86 5.87 5.02 5.87 3.99C5.87 2.96 5.04 2.12 4.00 2.12C2.97 2.12 2.12 2.96 2.12 4.00C2.12 5.03 2.97 5.86 4.00 5.86Z"/></svg>