<svg xmlns="http://www.w3.org/2000/svg" viewBox="0 0 80 14"><g transform="translate(52.50 0.60)"><path transform="translate(0.00 0.00)" opacity="0.350" fill-rule="evenodd" fill="none" stroke="#ffffff" stroke-opacity="1.000" stroke-width="1" d="M4.30 0.00H20.70A4.30 4.30 0 0 1 25.00 4.30V8.70A4.30 4.30 0 0 1 20.70 13.00H4.30A4.30 4.30 0 0 1 0.00 8.70V4.30A4.30 4.30 0 0 1 4.30 0.00Z"/><path transform="translate(25.90 4.67)" opacity="0.400" fill-rule="evenodd" fill="#ffffff" d="M0.00 0.00L0.00 4.00C0.80 3.66 1.33 2.87 1.33 2.00C1.33 1.13 0.80 0.34 0.00 0.00"/><path transform="translate(1.80 2.00)" fill-rule="evenodd" fill="#ffffff" d="M2.50 0.00H18.50A2.50 2.50 0 0 1 21.00 2.50V6.50A2.50 2.50 0 0 1 18.50 9.00H2.50A2.50 2.50 0 0 1 0.00 6.50V2.50A2.50 2.50 0 0 1 2.50 0.00Z"/></g><path transform="translate(27.20 1.20)" fill-rule="evenodd" fill="#ffffff" d="M8.57 2.42C11.06 2.42 13.45 3.33 15.25 4.95C15.39 5.07 15.61 5.07 15.74 4.95L17.04 3.70C17.10 3.64 17.14 3.55 17.14 3.46C17.14 3.37 17.10 3.28 17.03 3.22C12.30 -1.07 4.84 -1.07 0.11 3.22C0.04 3.28 0.00 3.37 0.00 3.46C-0.00 3.55 0.04 3.64 0.10 3.70L1.40 4.95C1.54 5.07 1.75 5.07 1.89 4.95C3.69 3.33 6.08 2.42 8.57 2.42L8.57 2.42ZM8.57 6.56C9.93 6.56 11.24 7.06 12.24 7.97C12.38 8.10 12.59 8.10 12.72 7.97L14.01 6.67C14.08 6.60 14.12 6.51 14.12 6.41C14.12 6.32 14.08 6.23 14.01 6.16C10.94 3.32 6.20 3.32 3.13 6.16C3.07 6.23 3.03 6.32 3.03 6.42C3.02 6.51 3.06 6.60 3.13 6.67L4.42 7.97C4.55 8.10 4.76 8.10 4.90 7.97C5.91 7.07 7.21 6.56 8.57 6.56L8.57 6.56ZM10.99 9.58C11.06 9.51 11.09 9.41 11.09 9.30C11.09 9.20 11.05 9.10 10.98 9.03C9.59 7.74 7.55 7.74 6.16 9.03C6.09 9.10 6.05 9.20 6.05 9.30C6.05 9.41 6.09 9.51 6.15 9.58L8.33 11.99C8.39 12.06 8.48 12.10 8.57 12.10C8.66 12.10 8.75 12.06 8.81 11.99L10.99 9.58Z"/><path transform="translate(0.50 1.10)" fill-rule="evenodd" fill="#ffffff" d="M1.07 7.40L2.13 7.40C2.72 7.40 3.20 7.91 3.20 8.55L3.20 10.85C3.20 11.49 2.72 12.00 2.13 12.00L1.07 12.00C0.48 12.00 0.00 11.49 0.00 10.85L0.00 8.55C0.00 7.91 0.48 7.40 1.07 7.40L1.07 7.40ZM6.37 5.00L7.43 5.00C8.02 5.00 8.50 5.52 8.50 6.17L8.50 10.83C8.50 11.48 8.02 12.00 7.43 12.00L6.37 12.00C5.78 12.00 5.30 11.48 5.30 10.83L5.30 6.17C5.30 5.52 5.78 5.00 6.37 5.00ZM11.77 2.40L12.83 2.40C13.42 2.40 13.90 2.92 13.90 3.55L13.90 10.85C13.90 11.48 13.42 12.00 12.83 12.00L11.77 12.00C11.18 12.00 10.70 11.48 10.70 10.85L10.70 3.55C10.70 2.92 11.18 2.40 11.77 2.40ZM18.13 0.00C18.72 0.00 19.20 0.50 19.20 1.12L19.20 10.88C19.20 11.50 18.72 12.00 18.13 12.00L17.07 12.00C16.48 12.00 16.00 11.50 16.00 10.88L16.00 1.13C16.00 0.50 16.48 0.00 17.07 0.00L18.13 0.00Z"/></svg>