<svg xmlns="http://www.w3.org/2000/svg" viewBox="0 0 20 20"><path transform="translate(0.00 0.00)" fill-rule="evenodd" fill="#c1bebf" d="M13.43 7.01C13.47 7.00 13.53 7.00 13.58 7.01C13.69 7.05 13.75 7.25 13.89 7.66C14.45 9.37 14.73 10.23 15.26 10.90C15.50 11.21 15.79 11.50 16.10 11.74C16.77 12.27 17.63 12.55 19.34 13.11C19.75 13.25 19.95 13.31 19.99 13.43C20.00 13.47 20.00 13.53 19.99 13.57C19.95 13.69 19.75 13.75 19.34 13.89C17.63 14.45 16.77 14.73 16.10 15.26C15.78 15.50 15.50 15.79 15.26 16.10C14.73 16.78 14.45 17.63 13.89 19.34C13.75 19.75 13.69 19.95 13.58 19.99C13.53 20.00 13.47 20.00 13.43 19.99C13.32 19.95 13.25 19.75 13.11 19.34C12.55 17.63 12.27 16.77 11.74 16.10C11.50 15.79 11.22 15.51 10.90 15.26C10.23 14.73 9.37 14.45 7.66 13.89C7.25 13.75 7.05 13.69 7.01 13.57C7.00 13.53 7.00 13.47 7.01 13.43C7.05 13.31 7.25 13.25 7.66 13.11C9.37 12.55 10.23 12.27 10.90 11.74C11.21 11.50 11.50 11.21 11.74 10.90C12.27 10.22 12.55 9.37 13.11 7.66C13.25 7.25 13.32 7.05 13.43 7.01ZM4.70 3.51C4.81 3.20 4.86 3.04 4.94 3.01C4.98 3.00 5.02 3.00 5.06 3.01C5.14 3.04 5.20 3.20 5.30 3.51C5.73 4.82 5.95 5.48 6.35 6.00C6.54 6.24 6.76 6.46 7.00 6.65C7.52 7.05 8.18 7.27 9.49 7.70C9.80 7.81 9.96 7.86 9.99 7.94C10.00 7.98 10.00 8.02 9.99 8.06C9.96 8.14 9.81 8.19 9.49 8.30C8.18 8.73 7.52 8.95 7.00 9.35C6.76 9.54 6.54 9.76 6.35 10.00C5.95 10.52 5.73 11.18 5.30 12.49C5.20 12.80 5.14 12.96 5.06 12.99C5.02 13.00 4.98 13.00 4.94 12.99C4.86 12.96 4.81 12.80 4.70 12.49C4.27 11.18 4.05 10.52 3.65 10.00C3.46 9.76 3.24 9.54 3.00 9.35C2.48 8.95 1.82 8.73 0.51 8.30C0.20 8.19 0.04 8.14 0.01 8.06C-0.00 8.02 -0.00 7.98 0.01 7.94C0.04 7.86 0.20 7.81 0.51 7.70C1.82 7.27 2.48 7.05 3.00 6.65C3.24 6.46 3.46 6.24 3.65 6.00C4.05 5.48 4.27 4.82 4.70 3.51L4.70 3.51ZM10.39 0.28C10.45 0.11 10.48 0.02 10.52 0.01C10.54 -0.00 10.57 -0.00 10.59 0.01C10.63 0.02 10.66 0.11 10.72 0.28C10.96 1.01 11.08 1.38 11.31 1.67C11.41 1.80 11.53 1.92 11.67 2.03C11.96 2.25 12.32 2.37 13.05 2.61C13.22 2.67 13.31 2.70 13.33 2.75C13.34 2.77 13.34 2.79 13.33 2.81C13.31 2.86 13.22 2.89 13.05 2.94C12.32 3.18 11.96 3.30 11.67 3.53C11.53 3.63 11.41 3.75 11.31 3.89C11.08 4.18 10.96 4.54 10.72 5.27C10.66 5.45 10.63 5.53 10.59 5.55C10.57 5.56 10.54 5.56 10.52 5.55C10.48 5.53 10.45 5.45 10.39 5.27C10.15 4.54 10.03 4.18 9.80 3.89C9.70 3.75 9.58 3.63 9.45 3.53C9.16 3.30 8.79 3.18 8.06 2.94C7.89 2.89 7.80 2.86 7.78 2.81C7.78 2.79 7.78 2.77 7.78 2.75C7.80 2.70 7.89 2.67 8.06 2.61C8.79 2.37 9.16 2.25 9.45 2.03C9.58 1.92 9.70 1.80 9.80 1.67C10.03 1.38 10.15 1.01 10.39 0.28L10.39 0.28Z"/></svg>