<svg xmlns="http://www.w3.org/2000/svg" viewBox="0 0 20 20"><defs><linearGradient id="g3" x1="0.500" y1="-0.075" x2="0.500" y2="0.878"><stop offset="0.000" stop-color="#f7329e" stop-opacity="1.000"/><stop offset="1.000" stop-color="#8b31ff" stop-opacity="1.000"/></linearGradient></defs><path transform="translate(1.00 1.00)" fill-rule="evenodd" fill="url(#g3)" d="M0.00 9.00A9.00 9.00 0 1 0 18.00 9.00A9.00 9.00 0 1 0 0.00 9.00ZM5.91 6.27C5.91 7.96 7.28 9.33 8.97 9.33C10.66 9.33 12.03 7.96 12.03 6.27C12.03 4.58 10.66 3.21 8.97 3.21C7.28 3.21 5.91 4.58 5.91 6.27ZM14.22 12.89C14.22 14.32 11.88 15.90 9.00 15.90C6.12 15.90 3.82 14.32 3.82 12.89C3.82 11.46 6.12 10.52 9.00 10.52C11.88 10.52 14.22 11.46 14.22 12.89Z"/></svg>