<svg xmlns="http://www.w3.org/2000/svg" viewBox="0 0 40 40"><defs><linearGradient id="g1" x1="0.500" y1="-0.075" x2="0.500" y2="0.878"><stop offset="0.000" stop-color="#f7329e" stop-opacity="1.000"/><stop offset="1.000" stop-color="#8b31ff" stop-opacity="1.000"/></linearGradient><linearGradient id="g2" x1="0.500" y1="-0.075" x2="0.500" y2="0.878"><stop offset="0.000" stop-color="#f7329e" stop-opacity="1.000"/><stop offset="1.000" stop-color="#8b31ff" stop-opacity="1.000"/></linearGradient></defs><path transform="translate(9.00 32.16)" opacity="0.637" fill-rule="evenodd" fill="url(#g1)" d="M0.00 2.30A11.00 2.30 0 1 0 22.00 2.30A11.00 2.30 0 1 0 0.00 2.30Z"/><g transform="translate(5.00 0.00)"><path transform="translate(0.00 0.00)" fill-rule="evenodd" fill="url(#g2)" d="M0.00 15.00A15.00 15.00 0 1 0 30.00 15.00A15.00 15.00 0 1 0 0.00 15.00Z"/><g transform="translate(8.75 8.75)"><path transform="translate(5.00 0.00)" fill-rule="evenodd" fill="#ffffff" d="M1.25 0.00H1.25A1.25 1.25 0 0 1 2.50 1.25V11.25A1.25 1.25 0 0 1 1.25 12.50H1.25A1.25 1.25 0 0 1 0.00 11.25V1.25A1.25 1.25 0 0 1 1.25 0.00Z"/><path transform="translate(5.00 0.00) rotate(90.0 1.25 6.25)" fill-rule="evenodd" fill="#ffffff" d="M1.25 0.00H1.25A1.25 1.25 0 0 1 2.50 1.25V11.25A1.25 1.25 0 0 1 1.25 12.50H1.25A1.25 1.25 0 0 1 0.00 11.25V1.25A1.25 1.25 0 0 1 1.25 0.00Z"/></g></g></svg>