<svg xmlns="http://www.w3.org/2000/svg" viewBox="0 0 20 20"><path transform="translate(1.00 1.00)" fill-rule="evenodd" fill="#c1bebf" d="M9.00 0.00C4.03 0.00 0.00 4.03 0.00 9.00C0.00 10.53 0.38 11.96 1.05 13.22C1.30 13.68 1.45 14.21 1.45 14.77C1.45 15.61 1.13 16.37 0.61 16.94C0.55 17.06 0.51 17.19 0.49 17.33C0.49 17.68 0.75 17.96 1.08 18.00L9.00 18.00C13.97 18.00 18.00 13.97 18.00 9.00C18.00 4.03 13.97 0.00 9.00 0.00ZM8.98 7.16C8.98 7.16 7.63 5.55 5.98 6.20C4.34 6.84 4.14 8.95 5.01 10.07C5.89 11.18 8.98 13.50 8.98 13.50C8.98 13.50 12.02 11.44 12.99 10.07C13.97 8.70 13.49 6.87 11.99 6.20C10.49 5.52 8.98 7.16 8.98 7.16Z"/></svg>