<svg xmlns="http://www.w3.org/2000/svg" viewBox="0 0 16 16"><path transform="translate(0.00 0.00)" fill-rule="evenodd" fill="#15f983" d="M9.13 0.47L10.57 1.91L12.56 1.91C13.44 1.91 14.16 2.63 14.16 3.51L14.16 5.50L15.53 6.87C16.16 7.49 16.16 8.51 15.53 9.13L14.16 10.50L14.16 12.56C14.16 13.44 13.44 14.16 12.56 14.16L10.50 14.16L9.13 15.53C8.82 15.84 8.41 16.00 8.00 16.00C7.59 16.00 7.18 15.84 6.87 15.53L5.50 14.16L3.51 14.16C2.63 14.16 1.91 13.44 1.91 12.56L1.91 10.57L0.47 9.13C-0.16 8.51 -0.16 7.49 0.47 6.87L1.91 5.43L1.91 3.51C1.91 2.63 2.63 1.91 3.51 1.91L5.43 1.91L6.87 0.47C7.18 0.16 7.59 0.00 8.00 0.00C8.41 0.00 8.82 0.16 9.13 0.47ZM10.81 5.64L7.08 9.37L5.47 7.82C5.16 7.52 4.67 7.53 4.37 7.83L4.36 7.84C4.06 8.15 4.07 8.65 4.38 8.95L6.50 10.99C6.60 11.09 6.73 11.16 6.86 11.19C7.13 11.28 7.45 11.22 7.66 11.00L11.92 6.75C12.22 6.44 12.22 5.95 11.92 5.64C11.61 5.34 11.12 5.34 10.81 5.64Z"/></svg>