<?xml version="1.0" encoding="UTF-8"?>
<svg width="46px" height="46px" viewBox="0 0 46 46" version="1.1" xmlns="http://www.w3.org/2000/svg" xmlns:xlink="http://www.w3.org/1999/xlink">
    <title>pickup@3x</title>
    <g id="页面-1" stroke="none" stroke-width="1" fill="none" fill-rule="evenodd">
        <g id="Me3" transform="translate(-340, -58)">
            <g id="pickup" transform="translate(340, 58)">
                <circle id="椭圆形" fill="#10DB71" cx="23" cy="23" r="23"></circle>
                <g id="video-call-按钮" transform="translate(12, 16)" fill="#FFFFFF">
                    <path d="M14.4064498,0 C15.8152671,-1.33226763e-15 16.9573391,1.14207203 16.9573391,2.55088927 L16.9573391,11.4491107 C16.9573391,12.857928 15.8152671,14 14.4064498,14 L2.55088927,14 C1.14207203,14 4.4408921e-16,12.857928 -4.4408921e-16,11.4491107 L0,2.55088927 C0,1.14207203 1.14207203,-4.4408921e-16 2.55088927,-4.4408921e-16 L14.4064498,0 Z M21.8965236,3.18585672 C21.9646883,3.33282162 22,3.49287822 22,3.65488164 L22,10.3451184 C22,10.960754 21.5009287,11.4598253 20.8852931,11.4598253 C20.7232897,11.4598253 20.5632331,11.4245136 20.4162682,11.3563489 L18.7177259,10.5685377 C18.0419428,10.2550987 17.6095445,9.57790097 17.6095445,8.83296693 L17.6095445,5.16703307 C17.6095445,4.42209903 18.0419428,3.74490125 18.7177259,3.43146225 L20.4162682,2.64365112 C20.9747553,2.38461581 21.6374883,2.62736952 21.8965236,3.18585672 Z M8.46119515,5.43833016 C7.67679196,4.52905632 6.80760413,4.25663052 5.85363167,4.62105278 C4.42267297,5.16768616 4.24822425,6.96113083 5.01307829,7.90512139 C5.48862231,8.49204261 6.52036087,9.37615988 8.10829399,10.5574732 C8.31573817,10.7170389 8.60113716,10.7239042 8.81873655,10.5785743 C10.3793587,9.51828037 11.423047,8.62718061 11.9496987,7.90512139 C12.7985309,6.74134075 12.3806871,5.19229131 11.0781959,4.62105278 C10.2098685,4.24022709 9.33753494,4.51265288 8.46119515,5.43833016 Z" id="形状结合"></path>
                </g>
            </g>
        </g>
    </g>
</svg>