<?xml version="1.0" encoding="UTF-8"?>
<svg width="24px" height="24px" viewBox="0 0 24 24" version="1.1" xmlns="http://www.w3.org/2000/svg" xmlns:xlink="http://www.w3.org/1999/xlink">
    <title>random@3x</title>
    <g id="页面-1" stroke="none" stroke-width="1" fill="none" fill-rule="evenodd">
        <g id="Create_result" transform="translate(-352, -420)">
            <g id="random" transform="translate(340, 410)">
                <g transform="translate(12, 10)">
                    <rect id="矩形" x="0" y="0" width="24" height="24"></rect>
                    <path d="M12.6166008,7.32525022 C14.5026641,7.32525022 16.0316206,8.85420665 16.0316206,10.74027 L16.0316206,19.8469894 C16.0316206,21.7330527 14.5026641,23.2620091 12.6166008,23.2620091 L3.50988142,23.2620091 C1.62381809,23.2620091 0.0948616601,21.7330527 0.0948616601,19.8469894 L0.0948616601,10.74027 C0.0948616601,8.85420665 1.62381809,7.32525022 3.50988142,7.32525022 L12.6166008,7.32525022 Z M12.6166008,8.99481544 L3.50988142,8.99481544 C2.5458935,8.99481544 1.76442688,9.77628206 1.76442688,10.74027 L1.76442688,19.8469894 C1.76442688,20.8109773 2.5458935,21.5924439 3.50988142,21.5924439 L12.6166008,21.5924439 C13.5805887,21.5924439 14.3620553,20.8109773 14.3620553,19.8469894 L14.3620553,10.74027 C14.3620553,9.77628206 13.5805887,8.99481544 12.6166008,8.99481544 Z M5.27511419,16.7674824 C6.06097391,16.7674824 6.69803909,17.4045476 6.69803909,18.1904073 C6.69803909,18.976267 6.06097391,19.6133322 5.27511419,19.6133322 C4.48925447,19.6133322 3.85218929,18.976267 3.85218929,18.1904073 C3.85218929,17.4045476 4.48925447,16.7674824 5.27511419,16.7674824 Z M16.8110427,1.4795341 L22.3305481,6.99903954 C23.7960062,8.46449762 23.8292668,10.8205109 22.388175,12.2616026 L18.7658675,15.8839101 C18.4398646,16.209913 17.9113095,16.209913 17.5853066,15.8839101 C17.2593038,15.5579072 17.2593038,15.0293521 17.5853066,14.7033492 L21.2076141,11.0810418 C21.9891235,10.2995324 21.9707832,9.00039636 21.1499872,8.17960043 L15.6304818,2.66009499 C14.8096859,1.83929905 13.5105498,1.82095875 12.7290405,2.60246812 L9.43605034,5.89545825 C9.11004745,6.22146114 8.58149234,6.22146114 8.25548946,5.89545825 C7.92948657,5.56945536 7.92948657,5.04090025 8.25548946,4.71489736 L11.5484796,1.42190723 C12.9895714,-0.0191845371 15.3455846,0.0140760196 16.8110427,1.4795341 Z M10.8659562,10.74027 C11.6518159,10.74027 12.2888811,11.3773352 12.2888811,12.1631949 C12.2888811,12.9490546 11.6518159,13.5861198 10.8659562,13.5861198 C10.0800965,13.5861198 9.44303129,12.9490546 9.44303129,12.1631949 C9.44303129,11.3773352 10.0800965,10.74027 10.8659562,10.74027 Z M18.7269345,8.32053335 C19.4184911,8.32053335 19.9791084,8.8811507 19.9791084,9.57270726 C19.9791084,10.2642638 19.4184911,10.8248812 18.7269345,10.8248812 C18.035378,10.8248812 17.4747606,10.2642638 17.4747606,9.57270726 C17.4747606,8.8811507 18.035378,8.32053335 18.7269345,8.32053335 Z M14.1735748,3.76717366 C14.8651314,3.76717366 15.4257488,4.32779102 15.4257488,5.01934757 C15.4257488,5.71090413 14.8651314,6.27152149 14.1735748,6.27152149 C13.4820183,6.27152149 12.9214009,5.71090413 12.9214009,5.01934757 C12.9214009,4.32779102 13.4820183,3.76717366 14.1735748,3.76717366 Z" id="形状结合" fill="#FFFFFF" fill-rule="nonzero"></path>
                </g>
            </g>
        </g>
    </g>
</svg>