<?xml version="1.0" encoding="UTF-8"?>
<svg width="32px" height="32px" viewBox="0 0 32 32" version="1.1" xmlns="http://www.w3.org/2000/svg" xmlns:xlink="http://www.w3.org/1999/xlink">
    <title>reset@3x</title>
    <g id="页面-1" stroke="none" stroke-width="1" fill="none" fill-rule="evenodd">
        <g id="Me" transform="translate(-342, -140)">
            <g id="reset" transform="translate(342, 140)">
                <rect id="矩形备份-2" stroke="#665367" fill="#2E1F2F" opacity="0.5" transform="translate(16, 16) scale(-1, 1) translate(-16, -16)" x="0.5" y="0.5" width="31" height="31" rx="15.5"></rect>
                <g id="编组" transform="translate(9, 9)" fill="#FFFFFF" fill-rule="nonzero">
                    <path d="M0.134760894,6.5543907 C0.373784172,6.21379066 0.842589713,6.13116995 1.18315758,6.3696248 L3.14112216,7.74337127 C3.44109026,7.95740363 3.54030405,8.35889525 3.37468875,8.68855273 C3.20907346,9.0182102 2.82822081,9.17732115 2.47809503,9.0631277 L1.71333992,8.80637509 C2.45654622,10.9912325 4.46106303,12.4949395 6.76163622,12.5934017 C9.06220942,12.691864 11.1872754,11.364899 12.1135308,9.25149294 C12.2792196,8.91545517 12.6793814,8.76966756 13.0216241,8.92065484 C13.3638669,9.07164213 13.5269508,9.46591697 13.391713,9.81538887 C12.0757127,12.8190282 8.85505059,14.5031101 5.64485754,13.8662141 C2.43466449,13.229318 0.0966402825,10.4424037 0.021064907,7.16267844 C-0.0294815378,6.95333022 0.0119125837,6.73230331 0.134760894,6.55559048 L0.134760894,6.5543907 Z M6.99960493,1.68806764e-07 C10.7074812,0.000242364361 13.7682593,2.90636747 13.9697674,6.61797896 C13.9733578,6.671969 13.972161,6.72595904 13.9733578,6.77994907 C14.0568524,7.08616762 13.9399356,7.41200059 13.6809937,7.59473217 C13.4220519,7.77746376 13.0766391,7.77789018 12.8172491,7.5957985 L10.8592845,6.22085225 C10.5602102,6.00671662 10.4613929,5.60604572 10.6264696,5.2768662 C10.7915463,4.94768667 11.1712747,4.78819252 11.5211148,4.90109582 L12.2715083,5.15304932 C11.5268169,3.0211414 9.57772503,1.54620589 7.32844416,1.41248632 C5.07916328,1.27876674 2.969844,2.51243003 1.97902949,4.54116225 C1.80693221,4.88331103 1.39226442,5.02295645 1.04901826,4.85435708 C0.7057721,4.68575772 0.561737765,4.27168293 0.725980028,3.92567584 C1.89721699,1.52294059 4.33196518,-0.000585520613 6.99960493,1.68806764e-07 L6.99960493,1.68806764e-07 Z" id="形状"></path>
                </g>
            </g>
        </g>
    </g>
</svg>