<?xml version="1.0" encoding="UTF-8"?>
<svg width="24px" height="24px" viewBox="0 0 24 24" version="1.1" xmlns="http://www.w3.org/2000/svg" xmlns:xlink="http://www.w3.org/1999/xlink">
    <title>setting@3x</title>
    <g id="页面-1" stroke="none" stroke-width="1" fill="none" fill-rule="evenodd">
        <g id="Me" transform="translate(-16, -60)">
            <g id="setting" transform="translate(16, 60)">
                <rect id="矩形" fill="#A1A3A5" opacity="0" x="0" y="0" width="24" height="24"></rect>
                <g id="编组" transform="translate(3, 3)" fill-rule="nonzero" stroke="#A1A3A5" stroke-width="1.5">
                    <path d="M9.01142125,12.0066991 C11.0114213,12.0066991 12.5739213,10.4212457 12.5739213,8.46991846 C12.5739213,6.51859123 10.9489213,4.93313786 9.01142125,4.93313786 C7.01142125,4.93313786 5.44892125,6.51859123 5.44892125,8.46991846 C5.44892125,10.4212457 7.07392125,12.0066991 9.01142125,12.0066991 L9.01142125,12.0066991 Z" id="形状"></path>
                    <path d="M6.0625,16.9760777 C5,16.6102038 4,16.061393 3.125,15.2686663 C3,15.1467084 2.9375,14.9637714 3,14.8418135 C3.3125,13.9271289 3.1875,12.9514652 2.6875,12.1587386 C2.1875,11.3050329 1.4375,10.7562221 0.5,10.5732852 C0.3125,10.5123062 0.1875,10.3903483 0.1875,10.2074113 C0.0625,9.65860054 0,9.04881078 0,8.5 C0,7.95118922 0.0625,7.40237843 0.1875,6.79258867 C0.25,6.60965175 0.375,6.48769379 0.5,6.42671482 C1.4375,6.18279892 2.25,5.63398813 2.6875,4.84126145 C3.1875,3.98755578 3.25,3.07287114 3,2.1581865 C2.9375,1.97524958 3,1.79231265 3.125,1.73133367 C4,0.999585962 5,0.450775179 6.0625,0.0239223477 C6.25,-0.0370566282 6.375,0.0239223477 6.5,0.1458803 C7.1875,0.816649035 8.0625,1.24350187 9,1.24350187 C9.9375,1.24350187 10.875,0.877628011 11.5,0.1458803 C11.625,0.0239223477 11.8125,-0.0370566282 11.9375,0.0239223477 C13,0.389796203 14,0.938606986 14.875,1.73133367 C15,1.85329163 15.0625,2.03622855 15,2.1581865 C14.6875,3.07287114 14.8125,4.04853476 15.3125,4.84126145 C15.8125,5.69496711 16.5625,6.24377789 17.5,6.42671482 C17.6875,6.48769379 17.8125,6.60965175 17.8125,6.79258867 C17.9375,7.34139946 18,7.95118922 18,8.5 C18,9.04881078 17.9375,9.59762157 17.8125,10.2074113 C17.75,10.3903483 17.625,10.5123062 17.5,10.5732852 C16.5625,10.8172011 15.75,11.3660119 15.3125,12.1587386 C14.8125,13.0124442 14.75,13.9271289 15,14.8418135 C15.0625,15.0247504 15,15.2076874 14.875,15.2686663 C14,16.000414 13,16.5492248 11.9375,16.9760777 C11.75,17.0370566 11.625,16.9760777 11.5,16.8541197 C10.8125,16.183351 9.9375,15.7564981 9,15.7564981 C8.0625,15.7564981 7.125,16.122372 6.5,16.8541197 C6.4375,16.9150987 6.3125,16.9760777 6.1875,16.9760777 C6.125,16.9760777 6.0625,16.9760777 6.0625,16.9760777 Z" id="形状"></path>
                </g>
            </g>
        </g>
    </g>
</svg>