<?xml version="1.0" encoding="UTF-8"?>
<svg width="24px" height="24px" viewBox="0 0 24 24" version="1.1" xmlns="http://www.w3.org/2000/svg" xmlns:xlink="http://www.w3.org/1999/xlink">
    <title>shre@3x</title>
    <g id="页面-1" stroke="none" stroke-width="1" fill="none" fill-rule="evenodd">
        <g id="Me" transform="translate(-362, -60)">
            <g id="shre" transform="translate(362, 60)">
                <rect id="矩形" fill="#A1A3A5" opacity="0" x="0" y="0" width="24" height="24"></rect>
                <path d="M21.6883322,12.6111469 L14.3547233,19.7053927 C13.7316063,20.3561197 12.7172597,19.8583938 12.7172597,18.9007202 L12.7172597,15.3269166 C12.4692321,15.3069889 12.220633,15.2967508 11.9719374,15.2962219 C8.61237334,15.2962219 5.68549348,17.0160677 4.1473486,19.5665584 C3.83039229,20.0874233 3.11227469,19.8886163 3.05095617,19.260084 C3.01683597,18.9193105 3,18.5767477 3,18.2339376 C3,12.8836211 7.21716107,8.45556129 12.7207143,7.67450009 L12.7207143,4.09927975 C12.7207143,3.14160615 13.7354926,2.64388033 14.3581779,3.29460726 L21.6917867,11.0065242 C22.1033117,11.4353051 22.1033117,12.1785882 21.6883322,12.6111469 Z" id="路径" stroke="#A1A3A5" stroke-width="1.2" fill-rule="nonzero"></path>
            </g>
        </g>
    </g>
</svg>