<?xml version="1.0" encoding="UTF-8"?>
<svg width="19px" height="12px" viewBox="0 0 19 12" version="1.1" xmlns="http://www.w3.org/2000/svg" xmlns:xlink="http://www.w3.org/1999/xlink">
    <title>callme@3x</title>
    <g id="页面-1" stroke="none" stroke-width="1" fill="none" fill-rule="evenodd">
        <g id="chatroom-diy3" transform="translate(-41, -743)" fill="#FFFFFF">
            <g id="编组-9" transform="translate(12, 372)">
                <g id="编组-8" transform="translate(0, 356)">
                    <path d="M41.4712231,15 C42.6717529,15 43.6449747,15.9732218 43.6449747,17.1737516 L43.6449747,24.8262484 C43.6449747,26.0267782 42.6717529,27 41.4712231,27 L31.1737516,27 C29.9732218,27 29,26.0267782 29,24.8262484 L29,17.1737516 C29,15.9732218 29.9732218,15 31.1737516,15 L41.4712231,15 Z M47.9129671,17.7221412 C47.9703089,17.8467081 48,17.9822136 48,18.1193448 L48,23.8806552 C48,24.4052718 47.5747142,24.8305576 47.0500975,24.8305576 C46.9129663,24.8305576 46.7774608,24.8008665 46.6528939,24.7435248 L45.1568377,24.0548472 C44.5786611,23.7886959 44.208243,23.2104017 44.208243,22.5739076 L44.208243,19.4260924 C44.208243,18.7895983 44.5786611,18.2113041 45.1568377,17.9451528 L46.6528939,17.2564752 C47.1294436,17.0371057 47.6935976,17.2455915 47.9129671,17.7221412 Z M36.3073958,19.6614259 C35.6299567,18.8820483 34.8792945,18.6485404 34.0554092,18.9609024 C32.8195812,19.4294453 32.6689209,20.9666836 33.3294767,21.7758183 C33.7410339,22.2799472 34.634955,23.0398837 36.01124,24.0556277 C36.1902108,24.1872896 36.4324303,24.1922608 36.6170126,24.0685904 C37.9639916,23.158526 38.8653587,22.3947262 39.3201943,21.7758183 C40.0532766,20.7782921 39.6924116,19.4505354 38.5675329,18.9609024 C37.8176137,18.6344804 37.0642347,18.8679882 36.3073958,19.6614259 Z" id="callme"></path>
                </g>
            </g>
        </g>
    </g>
</svg>