<?xml version="1.0" encoding="UTF-8"?>
<svg width="18px" height="18px" viewBox="0 0 18 18" version="1.1" xmlns="http://www.w3.org/2000/svg" xmlns:xlink="http://www.w3.org/1999/xlink">
    <title>Create image@3x</title>
    <defs>
        <linearGradient x1="1.24995056%" y1="23.0070125%" x2="98.7500494%" y2="67.9889494%" id="linearGradient-1">
            <stop stop-color="#FFB9E2" offset="0%"></stop>
            <stop stop-color="#FCEEF9" offset="31.387009%"></stop>
            <stop stop-color="#FCEEF9" offset="53.2845237%"></stop>
            <stop stop-color="#E6CFFC" offset="63.3888356%"></stop>
            <stop stop-color="#FFB1E5" offset="99.9480988%"></stop>
        </linearGradient>
    </defs>
    <g id="页面-1" stroke="none" stroke-width="1" fill="none" fill-rule="evenodd">
        <g id="chatroom-diy" transform="translate(-72, -324)">
            <g id="编组-7" transform="translate(12, 141)">
                <g id="编组-6" transform="translate(0, 10)">
                    <g id="编组-4" transform="translate(12, 164)">
                        <g id="Create-image" transform="translate(48, 9)">
                            <rect id="矩形" x="0" y="0" width="18" height="18"></rect>
                            <path d="M8.5,2.5 C8.88659932,2.5 9.2,2.81340068 9.2,3.2 C9.2,3.58659932 8.88659932,3.9 8.5,3.9 L5.71428571,3.9 C4.04954168,3.9 2.7,5.24954168 2.7,6.91428571 L2.699,11.291 L4.98378926,9.29212999 C5.33109178,8.98819392 5.85201336,8.99622098 6.1897863,9.3107136 L12.5427422,15.2261897 C13.5798474,14.7496984 14.3,13.7018067 14.3,12.4857143 L14.3,9.7 C14.3,9.31340068 14.6134007,9 15,9 C15.3865993,9 15.7,9.31340068 15.7,9.7 L15.7,12.4857143 C15.7,14.923657 13.723657,16.9 11.2857143,16.9 L5.71428571,16.9 C3.27634303,16.9 1.3,14.923657 1.3,12.4857143 L1.3,6.91428571 C1.3,4.47634303 3.27634303,2.5 5.71428571,2.5 L8.5,2.5 Z M5.56547856,10.642 L2.78047161,13.0807257 L2.75292793,13.0510447 C3.01753305,14.445563 4.2427709,15.5 5.71428571,15.5 L10.783,15.5 L5.56547856,10.642 Z M10.3,7.2 C11.0179702,7.2 11.6,7.78202983 11.6,8.5 C11.6,9.21797017 11.0179702,9.8 10.3,9.8 C9.58202983,9.8 9,9.21797017 9,8.5 C9,7.78202983 9.58202983,7.2 10.3,7.2 Z M14.0346622,1.00578962 C14.0853225,1.02312032 14.1173184,1.11777256 14.1786439,1.30574391 C14.4386109,2.09495699 14.5679278,2.48823037 14.8132299,2.80151598 C14.9252156,2.94549404 15.0545325,3.07480767 15.1998474,3.18812372 C15.5118077,3.43208654 15.9064241,3.56140018 16.6943239,3.82136057 C16.8823,3.88401767 16.9769546,3.91467969 16.9942857,3.96533863 C17.0019048,3.98781821 17.0019048,4.01218179 16.9942857,4.03466137 C16.9769546,4.08532031 16.8823,4.11598233 16.6943239,4.17863943 C15.9064241,4.43859982 15.5118077,4.56791346 15.1985142,4.81187628 C15.0545378,4.92470098 14.9247243,5.0545113 14.8118967,5.19848402 C14.5679278,5.51176963 14.4386109,5.90504301 14.1786439,6.69425609 C14.1173184,6.88222744 14.0853225,6.97687968 14.0346622,6.99421038 C14.0121988,7.00192987 13.9878012,7.00192987 13.9653378,6.99421038 C13.9146775,6.97687968 13.8840148,6.88222744 13.8213561,6.69425609 C13.5627223,5.90504301 13.4320722,5.51176963 13.1881033,5.19848402 C13.0753051,5.05448529 12.9454882,4.92467162 12.8014858,4.81187628 C12.4895255,4.56791346 12.094909,4.43859982 11.3056761,4.17863943 C11.1177,4.11598233 11.0230454,4.08532031 11.0057143,4.03466137 C10.9980952,4.01218179 10.9980952,3.98781821 11.0057143,3.96533863 C11.0230454,3.91467969 11.1177,3.88401767 11.3056761,3.82136057 C12.094909,3.56273332 12.4895255,3.43208654 12.8014858,3.18812372 C12.9454882,3.07532838 13.0753051,2.94551471 13.1881033,2.80151598 C13.4320722,2.48823037 13.5613891,2.09495699 13.8213561,1.30574391 C13.8840148,1.11777256 13.9146775,1.02312032 13.9653378,1.00578962 C13.9878012,0.998070127 14.0121988,0.998070127 14.0346622,1.00578962 Z" id="形状结合" fill="url(#linearGradient-1)" fill-rule="nonzero"></path>
                        </g>
                    </g>
                </g>
            </g>
        </g>
    </g>
</svg>