<?xml version="1.0" encoding="UTF-8"?>
<svg width="16px" height="16px" viewBox="0 0 16 16" version="1.1" xmlns="http://www.w3.org/2000/svg" xmlns:xlink="http://www.w3.org/1999/xlink">
    <title>DIY</title>
    <g id="页面-1" stroke="none" stroke-width="1" fill="none" fill-rule="evenodd">
        <g id="chatroom-diy" transform="translate(-156, -741)" fill-rule="nonzero">
            <g id="编组-7" transform="translate(12, 141)">
                <g id="编组-16" transform="translate(0, 231)">
                    <g id="编组-2" transform="translate(136, 361)">
                        <g id="DIY" transform="translate(8, 8)">
                            <rect id="矩形" x="0" y="0" width="16" height="16"></rect>
                            <path d="M10.7407033,5.60979691 C10.7794301,5.59673436 10.821372,5.59673436 10.8600989,5.60979691 C10.9486827,5.63964796 11.0026032,5.80238427 11.1104444,6.12978281 C11.5591407,7.49715314 11.7844517,8.18083829 12.2081133,8.72200878 C12.4035754,8.97140943 12.6288864,9.19673665 12.8782691,9.39221282 C13.4194006,9.81590503 14.1030365,10.0412323 15.4703083,10.4899608 C15.7976833,10.5978098 15.9604079,10.6517342 15.9902568,10.7403244 C16.0032477,10.7790656 16.0032477,10.8209874 15.9902568,10.8597286 C15.9604079,10.9483188 15.7976833,11.0022432 15.4703083,11.1100922 C14.1030365,11.5588207 13.4194006,11.784148 12.8782691,12.2078402 C12.6279236,12.4033163 12.4035754,12.6286436 12.2081133,12.8780442 C11.7844517,13.4201777 11.5591407,14.1038628 11.1104444,15.4702702 C11.0026032,15.7976687 10.9486827,15.960405 10.8600989,15.9902561 C10.8213605,16.003248 10.7794417,16.003248 10.7407033,15.9902561 C10.6521195,15.960405 10.5981989,15.7976687 10.4903577,15.4702702 C10.0416615,14.1028999 9.8163505,13.4192147 9.39268881,12.8780442 C9.19714228,12.6287219 8.97211827,12.404005 8.72253305,12.2088031 C8.18043866,11.7841479 7.49680274,11.5588207 6.12953093,11.1091292 C5.80311885,11.0022432 5.64039424,10.9483188 5.60958249,10.8587657 C5.59680584,10.8203191 5.59680584,10.778771 5.60958249,10.7403244 C5.64039424,10.6517342 5.80311885,10.5978098 6.12953093,10.4899608 C7.49680276,10.0412323 8.18043866,9.81590503 8.72253305,9.39221282 C8.97191573,9.19673665 9.19626385,8.97140943 9.39172596,8.72200878 C9.81538764,8.17987534 10.0416615,7.49715311 10.4903577,6.12978281 C10.5981989,5.80238427 10.6521195,5.63964796 10.7407033,5.60979691 Z M3.76278665,2.80730007 C3.84500579,2.55623321 3.88611537,2.43069979 3.9550017,2.40737057 C3.98457567,2.39754314 4.01653541,2.39754314 4.04610938,2.40737057 C4.11499568,2.43069979 4.15610527,2.55623321 4.23832443,2.80730007 C4.58386705,3.8593368 4.7571939,4.38479974 5.08273727,4.80139296 C5.23384273,4.99358129 5.40716958,5.16688407 5.5993846,5.31685763 C6.01603568,5.64346671 6.54157157,5.81676949 7.59264337,6.16115323 C7.84374509,6.24447187 7.97040702,6.28557575 7.9926284,6.35445248 C8.0024572,6.38402235 8.0024572,6.41597765 7.9926284,6.44554752 C7.97040702,6.51442425 7.84485614,6.55552813 7.59264337,6.63773587 C6.54157157,6.98434143 6.01492461,7.15653329 5.5993846,7.48203145 C5.4072981,7.63276663 5.23419057,7.80622315 5.08384834,7.99860704 C4.7571939,8.41520026 4.58386705,8.94066317 4.23943548,9.99269993 C4.15610527,10.2437668 4.11499568,10.3693002 4.04610938,10.3926294 C4.01653541,10.4024569 3.98457567,10.4024569 3.9550017,10.3926294 C3.88611539,10.3693002 3.84500581,10.2437668 3.76278665,9.99269993 C3.41613295,8.9406632 3.24391718,8.41520026 2.91726273,7.99860704 C2.76685165,7.80661332 2.59374686,7.63353257 2.40172647,7.48314237 C1.98507539,7.15653329 1.45953951,6.98323051 0.407356633,6.63884677 C0.156254908,6.55552813 0.0307040578,6.51442425 0.00737159734,6.44554752 C-0.00245719911,6.41597765 -0.00245719911,6.38402235 0.00737159734,6.35445248 C0.0307040578,6.28557575 0.156254908,6.24447187 0.407356633,6.16226413 C1.45953948,5.81565857 1.98507539,5.64346671 2.40172647,5.31685763 C2.5939415,5.16688407 2.76726835,4.99358129 2.91726273,4.80139296 C3.24391718,4.38479974 3.41724403,3.85933683 3.7616756,2.80730007 L3.76278665,2.80730007 Z M8.31233893,0.226505026 C8.35875651,0.0872497365 8.38147152,0.0171282863 8.41900063,0.00428913846 C8.43564156,-0.00142971282 8.45371533,-0.00142971282 8.47035625,0.00428913846 C8.50788536,0.0171282863 8.53158797,0.0872497365 8.57701796,0.226505026 C8.76960159,0.811179724 8.86539961,1.10252943 9.04711956,1.33462158 C9.13007867,1.44128521 9.22587669,1.53708496 9.33352598,1.62103317 C9.56462634,1.80176875 9.85695842,1.8975685 10.440635,2.0901556 C10.5798877,2.13657402 10.6500079,2.15928944 10.6628469,2.19681923 C10.668491,2.21347283 10.668491,2.23152217 10.6628469,2.24817577 C10.6500079,2.28570556 10.5798877,2.30842098 10.440635,2.3548394 C9.85695842,2.5474265 9.56462634,2.64322625 9.33253837,2.82396184 C9.22588062,2.90754604 9.12971465,3.00371374 9.04613195,3.11037342 C8.86539961,3.34246557 8.76960159,3.63381528 8.57701796,4.21848998 C8.53158797,4.35774527 8.50788536,4.42786672 8.47035625,4.44070586 C8.45371533,4.44642471 8.43564156,4.44642471 8.41900063,4.44070586 C8.38147152,4.42786672 8.35875651,4.35774527 8.31233893,4.21848998 C8.12074291,3.63381528 8.02395728,3.34246557 7.84322494,3.11037342 C7.75966399,3.00369447 7.66349554,2.90752429 7.55681852,2.82396184 C7.32571816,2.64322625 7.03338609,2.5474265 6.44872192,2.3548394 C6.30946914,2.30842098 6.23934895,2.28570556 6.22651004,2.24817577 C6.22086586,2.23152217 6.22086586,2.21347283 6.22651004,2.19681923 C6.23934895,2.15928944 6.30946914,2.13657402 6.44872192,2.0901556 C7.03338609,1.89855613 7.32571816,1.80176875 7.55681852,1.62103317 C7.66349554,1.53747071 7.75966399,1.44130053 7.84322494,1.33462158 C8.02395728,1.10252943 8.1197553,0.811179724 8.31233893,0.226505026 L8.31233893,0.226505026 Z" id="形状" fill="#FFFFFF"></path>
                        </g>
                    </g>
                </g>
            </g>
        </g>
    </g>
</svg>