<?xml version="1.0" encoding="UTF-8"?>
<svg width="24px" height="24px" viewBox="0 0 24 24" version="1.1" xmlns="http://www.w3.org/2000/svg" xmlns:xlink="http://www.w3.org/1999/xlink">
    <title>more@3x</title>
    <g id="页面-1" stroke="none" stroke-width="1" fill="none" fill-rule="evenodd">
        <g id="chatroom-diy" transform="translate(-362, -65)">
            <g id="编组-12" transform="translate(0, 54)">
                <g id="more" transform="translate(362, 11)">
                    <rect id="矩形" fill="#D8D8D8" opacity="0" x="0" y="0" width="24" height="24"></rect>
                    <rect id="矩形" fill="#FFFFFF" x="3" y="4" width="17" height="2" rx="0.5"></rect>
                    <rect id="矩形备份-7" fill="#FFFFFF" x="3" y="10" width="9" height="2" rx="0.5"></rect>
                    <path d="M20.8253394,15.7996637 C20.0506787,16.0087946 19.5638009,16.2152095 19.3628959,16.4207191 C19.1628959,16.6153647 18.9683258,17.0960942 18.7782805,17.8601914 L18.5529412,18.9565442 L18.4950226,19 C18.4606335,19 18.4434389,18.9855147 18.4434389,18.9565442 C18.3891403,18.5962235 18.3167421,18.2259441 18.2235294,17.8457062 C18.0334842,17.0716503 17.838914,16.5845835 17.638914,16.3845059 C17.4443439,16.1844283 16.9574661,15.9897827 16.1773756,15.7996637 L15.0515837,15.5651837 L15,15.5072426 C15,15.4728401 15.0171946,15.4493016 15.0515837,15.433911 L16.199095,15.2220641 C16.9927602,15.0364718 17.4877828,14.8354889 17.6823529,14.6154941 C17.8678733,14.4154165 18.0479638,13.9337817 18.2235294,13.1687791 L18.4434389,12.057941 C18.4434389,12.0181066 18.4606335,12 18.4950226,12 C18.5348416,12 18.5529412,12.0199172 18.5529412,12.057941 L18.7927602,13.1533885 C18.9828054,13.9129591 19.1728507,14.3882566 19.3628959,14.5774703 C19.5628959,14.7920331 20.0497738,14.998448 20.8244344,15.1985256 L21.9420814,15.4330057 C21.9809955,15.4474909 22,15.4719348 22,15.5063373 L21.9429864,15.5651837 L20.8253394,15.7996637 Z" id="路径备份-2" fill="#FFFFFF" fill-rule="nonzero"></path>
                    <rect id="矩形备份-8" fill="#FFFFFF" x="3" y="16" width="9" height="2" rx="0.5"></rect>
                </g>
            </g>
        </g>
    </g>
</svg>