<?xml version="1.0" encoding="UTF-8"?>
<svg width="32px" height="32px" viewBox="0 0 32 32" version="1.1" xmlns="http://www.w3.org/2000/svg" xmlns:xlink="http://www.w3.org/1999/xlink">
    <title>random@3x</title>
    <defs>
        <linearGradient x1="71.0986922%" y1="108.559669%" x2="80.8115821%" y2="1.96717642e-13%" id="linearGradient-1">
            <stop stop-color="#F463B6" offset="0%"></stop>
            <stop stop-color="#AFA7FC" offset="100%"></stop>
        </linearGradient>
        <linearGradient x1="71.0986922%" y1="69.9265539%" x2="80.8115821%" y2="32.9861111%" id="linearGradient-2">
            <stop stop-color="#F463B6" offset="0%"></stop>
            <stop stop-color="#AFA7FC" offset="100%"></stop>
        </linearGradient>
        <linearGradient x1="72.1722292%" y1="121.796567%" x2="80.8115821%" y2="1.96717642e-13%" id="linearGradient-3">
            <stop stop-color="#F463B6" offset="0%"></stop>
            <stop stop-color="#AFA7FC" offset="100%"></stop>
        </linearGradient>
    </defs>
    <g id="页面-1" stroke="none" stroke-width="1" fill="none" fill-rule="evenodd">
        <g id="chatroom-diy" transform="translate(-18, -733)">
            <g id="编组-7" transform="translate(12, 141)">
                <g id="编组-16" transform="translate(0, 231)">
                    <g id="random" transform="translate(6, 361)">
                        <rect id="矩形" x="0" y="0" width="32" height="32"></rect>
                        <rect id="矩形" stroke="url(#linearGradient-1)" stroke-width="1.6" x="4.89090909" y="11.8200315" width="13.6727273" height="13.6727273" rx="3.27272727"></rect>
                        <path d="M12.9443434,14.7000595 L12.9443434,10.2371095 C12.9443434,8.73097722 14.2002719,7.51001573 15.7495382,7.51001573 L23.2300577,7.51001573 C24.779324,7.51001573 26.0352525,8.73097722 26.0352525,10.2371095 L26.0352525,15.1463794" id="路径" stroke="url(#linearGradient-2)" stroke-width="1.6" stroke-linecap="round" transform="translate(19.4898, 11.3282) rotate(45) translate(-19.4898, -11.3282)"></path>
                        <path d="M14.413208,17.0200315 C15.1663236,17.0200315 15.7768444,16.4095107 15.7768444,15.6563951 C15.7768444,14.9032795 15.1663236,14.2927587 14.413208,14.2927587 C13.6600925,14.2927587 13.0495717,14.9032795 13.0495717,15.6563951 C13.0495717,16.4095107 13.6600925,17.0200315 14.413208,17.0200315 Z" id="椭圆形" fill="url(#linearGradient-3)"></path>
                        <path d="M21.9466456,14.3738445 C22.6093873,14.3738445 23.1466456,13.8365862 23.1466456,13.1738445 C23.1466456,12.5111028 22.6093873,11.9738445 21.9466456,11.9738445 C21.2839039,11.9738445 20.7466456,12.5111028 20.7466456,13.1738445 C20.7466456,13.8365862 21.2839039,14.3738445 21.9466456,14.3738445 Z" id="椭圆形备份-2" fill="url(#linearGradient-3)"></path>
                        <path d="M17.5830092,10.0102081 C18.2457509,10.0102081 18.7830092,9.47294979 18.7830092,8.81020809 C18.7830092,8.14746639 18.2457509,7.61020809 17.5830092,7.61020809 C16.9202675,7.61020809 16.3830092,8.14746639 16.3830092,8.81020809 C16.3830092,9.47294979 16.9202675,10.0102081 17.5830092,10.0102081 Z" id="椭圆形备份-3" fill="url(#linearGradient-3)"></path>
                        <path d="M9.05531777,22.79611 C9.80843333,22.79611 10.4189541,22.1855892 10.4189541,21.4324736 C10.4189541,20.6793581 9.80843333,20.0688373 9.05531777,20.0688373 C8.3022022,20.0688373 7.6916814,20.6793581 7.6916814,21.4324736 C7.6916814,22.1855892 8.3022022,22.79611 9.05531777,22.79611 Z" id="椭圆形备份" fill="url(#linearGradient-3)"></path>
                    </g>
                </g>
            </g>
        </g>
    </g>
</svg>