<?xml version="1.0" encoding="UTF-8"?>
<svg width="36px" height="36px" viewBox="0 0 36 36" version="1.1" xmlns="http://www.w3.org/2000/svg" xmlns:xlink="http://www.w3.org/1999/xlink">
    <title>VIDEO call@3x</title>
    <defs>
        <linearGradient x1="60.9287768%" y1="9.57906621%" x2="27.9673316%" y2="100%" id="linearGradient-1">
            <stop stop-color="#FC56FF" offset="0%"></stop>
            <stop stop-color="#BD56FF" offset="63.6780459%"></stop>
            <stop stop-color="#8355FF" offset="100%"></stop>
        </linearGradient>
    </defs>
    <g id="页面-1" stroke="none" stroke-width="1" fill="none" fill-rule="evenodd">
        <g id="chatroom-diy" transform="translate(-266, -59)">
            <g id="编组-12" transform="translate(0, 54)">
                <g id="VIDEO-call" transform="translate(266, 5)">
                    <circle id="椭圆形" fill="url(#linearGradient-1)" cx="18" cy="18" r="18"></circle>
                    <g id="video-call-按钮" transform="translate(9.4769, 11.9837)" fill="#FFFFFF">
                        <path d="M11.0298913,0 C12.1374624,-1.33226763e-15 13.0353261,0.897863735 13.0353261,2.00543478 L13.0353261,9.02445652 C13.0353261,10.1320276 12.1374624,11.0298913 11.0298913,11.0298913 L2.00543478,11.0298913 C0.897863735,11.0298913 0,10.1320276 0,9.02445652 L0,2.00543478 C0,0.897863735 0.897863735,4.4408921e-16 2.00543478,4.4408921e-16 L11.0298913,0 Z M16.8268108,2.51474745 C16.8826914,2.63230099 16.9116848,2.76082599 16.9116848,2.89098539 L16.9116848,8.13890592 C16.9116848,8.62290071 16.5193295,9.01525601 16.0353347,9.01525601 C15.9051753,9.01525601 15.7766503,8.98626259 15.6590968,8.93038207 L14.3950252,8.3294901 C13.8707449,8.08026698 13.5366848,7.55158436 13.5366848,6.97108281 L13.5366848,4.0588085 C13.5366848,3.47830695 13.8707449,2.94962433 14.3950252,2.70040121 L15.6590968,2.09950924 C16.096217,1.89171876 16.6190204,2.07762724 16.8268108,2.51474745 Z M6.50423024,4.28458504 C5.90124936,3.56821421 5.23309342,3.35358371 4.49976244,3.64069356 C3.39976596,4.07135833 3.26566497,5.4843226 3.85361817,6.22804498 C4.21840945,6.68948211 5.00896575,7.38408527 6.22528708,8.31185447 C6.39214772,8.43958325 6.62210151,8.44443894 6.79504209,8.32508023 C7.9854753,7.49308022 8.7827433,6.79453117 9.18588806,6.22804498 C9.83839634,5.31116112 9.51719441,4.09074348 8.51595263,3.64069356 C7.84845811,3.34066028 7.17788398,3.55529077 6.50423024,4.28458504 Z" id="形状结合"></path>
                    </g>
                </g>
            </g>
        </g>
    </g>
</svg>