<?xml version="1.0" encoding="UTF-8"?>
<svg width="16px" height="16px" viewBox="0 0 16 16" version="1.1" xmlns="http://www.w3.org/2000/svg" xmlns:xlink="http://www.w3.org/1999/xlink">
    <title>DIY@3x</title>
    <g id="页面-1" stroke="none" stroke-width="1" fill="none" fill-rule="evenodd">
        <g id="Live-action-menu-diy-generating" transform="translate(-260, -823)">
            <g id="编组-58" transform="translate(12, 806)">
                <g id="编组-16" transform="translate(242, 8)">
                    <g id="编组-14" transform="translate(6, 7)">
                        <g id="DIY" transform="translate(0, 2)">
                            <rect id="矩形" x="0" y="0" width="16" height="16"></rect>
                            <path d="M11.7838442,0.961910461 C12.06183,0.963643712 12.2867497,1.18857696 12.2884663,1.46656283 L12.3010347,3.50198028 C12.302724,3.77554892 12.0823222,3.99868952 11.8087535,4.00037878 C11.8067045,4.00039143 11.8046554,4.00039137 11.8026064,4.00037859 C11.5246206,3.99864534 11.2997009,3.77371209 11.2979844,3.49572622 L11.2854159,1.46030877 C11.2837267,1.18674014 11.5041285,0.963599528 11.7776971,0.961910276 C11.7797461,0.961897624 11.7817952,0.961897685 11.7838442,0.961910461 Z" id="矩形" fill="#FFFFFF" transform="translate(11.7932, 2.4811) rotate(26) translate(-11.7932, -2.4811)"></path>
                            <path d="M13.9958912,3.75470038 C14.276744,3.75605348 14.5040901,3.9833859 14.5054601,4.26423861 L14.5151715,6.25509571 C14.5165244,6.5324543 14.2927776,6.75839464 14.0154191,6.75974759 C14.013796,6.75975551 14.0121729,6.75975556 14.0105498,6.75974774 C13.729697,6.75839464 13.5023509,6.53106222 13.5009809,6.25020951 L13.4912695,4.25935241 C13.4899166,3.98199382 13.7136633,3.75605348 13.9910219,3.75470052 C13.992645,3.75469261 13.9942681,3.75469256 13.9958912,3.75470038 Z" id="矩形" fill="#FFFFFF" transform="translate(14.0032, 5.2572) rotate(71) translate(-14.0032, -5.2572)"></path>
                            <path d="M8.66666667,10.5222222 C11.3111111,10.7555556 13.3333333,11.6888889 13.3333333,12.7777778 C13.3333333,14.1 10.5333333,15.1111111 7.11111111,15.1111111 C3.68888889,15.1111111 0.888888889,14.1 0.888888889,12.7777778 C0.888888889,11.6888889 2.91111111,10.7555556 5.55555555,10.5222222 L5.55555555,11.3 C3.76666667,11.4555556 2.44444445,11.8444444 2.44444445,12.3888889 C2.44444445,13.0111111 4.54444445,13.5555556 7.11111111,13.5555556 C9.67777777,13.5555556 11.7777778,13.0111111 11.7777778,12.3888889 C11.7777778,11.9222222 10.4555556,11.4555556 8.66666667,11.3 Z M7.11111111,2.66666667 C8.82222223,2.66666667 10.2222222,4.06666665 10.2222222,5.77777777 C10.2222222,7.25555555 9.21111111,8.49999999 7.88888889,8.81111111 L7.88888889,12 C7.88888889,12.4666667 7.57777777,12.7777778 7.11111111,12.7777778 C6.64444445,12.7777778 6.33333333,12.4666667 6.33333333,12 L6.33333333,8.81111111 C5.01111111,8.42222221 3.99999999,7.25555555 3.99999999,5.77777777 C3.99999999,4.06666667 5.39999999,2.66666667 7.11111111,2.66666667 Z M7.88888889,3.6 L7.88888889,4.45555555 C8.12222221,4.61111112 8.27777777,4.76666667 8.43333333,5.00000001 L9.28888889,5.00000001 C9.05555555,4.37777778 8.51111111,3.83333334 7.88888889,3.6 Z" id="形状结合" fill="#FFFFFF" fill-rule="nonzero"></path>
                        </g>
                    </g>
                </g>
            </g>
        </g>
    </g>
</svg>