<?xml version="1.0" encoding="UTF-8"?>
<svg width="46px" height="46px" viewBox="0 0 46 46" version="1.1" xmlns="http://www.w3.org/2000/svg" xmlns:xlink="http://www.w3.org/1999/xlink">
    <title>hide-ui@3x</title>
    <defs>
        <linearGradient x1="16.5809112%" y1="13.9751699%" x2="83.8108839%" y2="87.1152982%" id="linearGradient-1">
            <stop stop-color="#FFFFFF" stop-opacity="0.52" offset="0%"></stop>
            <stop stop-color="#FFFFFF" stop-opacity="0.210546121" offset="21.7450014%"></stop>
            <stop stop-color="#FFFFFF" stop-opacity="0.0281905594" offset="50.0376246%"></stop>
            <stop stop-color="#FFFFFF" stop-opacity="0.228755953" offset="78.4153717%"></stop>
            <stop stop-color="#FFFFFF" stop-opacity="0.517892264" offset="100%"></stop>
        </linearGradient>
    </defs>
    <g id="页面-1" stroke="none" stroke-width="1" fill="none" fill-rule="evenodd">
        <g id="Live-action" transform="translate(-340, -170)">
            <g id="hide-ui" transform="translate(340, 170)">
                <circle id="椭圆形" stroke="url(#linearGradient-1)" fill-opacity="0.295782343" fill="#000000" cx="23" cy="23" r="22.5"></circle>
                <g id="编组-6" transform="translate(13, 16)" fill="#FFFFFF" fill-rule="nonzero">
                    <path d="M10,0 C15.5228475,0 20,5.06065756 20,7 C20,8.93934244 15.5228475,14 10,14 C4.4771525,14 0,8.93934244 0,7 C0,5.06065756 4.4771525,0 10,0 Z M10,1.5 C7.86987918,1.5 5.70266642,2.41431932 3.88903795,3.92522085 C2.46433211,5.11211787 1.5,6.53596761 1.5,7 C1.5,7.46403239 2.46433211,8.88788213 3.88903795,10.0747791 C5.70266642,11.5856807 7.86987918,12.5 10,12.5 C12.1301208,12.5 14.2973336,11.5856807 16.1109621,10.0747791 C17.5356679,8.88788213 18.5,7.46403239 18.5,7 C18.5,6.53596761 17.5356679,5.11211787 16.1109621,3.92522085 C14.2973336,2.41431932 12.1301208,1.5 10,1.5 Z M10,3.51531567 C11.9329966,3.51531567 13.5,5.08231905 13.5,7.01531567 C13.5,8.9483123 11.9329966,10.5153157 10,10.5153157 C8.06700338,10.5153157 6.5,8.9483123 6.5,7.01531567 C6.5,5.08231905 8.06700338,3.51531567 10,3.51531567 Z M10,5.01531567 C8.8954305,5.01531567 8,5.91074617 8,7.01531567 C8,8.11988517 8.8954305,9.01531567 10,9.01531567 C11.1045695,9.01531567 12,8.11988517 12,7.01531567 C12,5.91074617 11.1045695,5.01531567 10,5.01531567 Z" id="形状结合"></path>
                </g>
            </g>
        </g>
    </g>
</svg>