<?xml version="1.0" encoding="UTF-8"?>
<svg width="46px" height="46px" viewBox="0 0 46 46" version="1.1" xmlns="http://www.w3.org/2000/svg" xmlns:xlink="http://www.w3.org/1999/xlink">
    <title>hide@3x</title>
    <defs>
        <linearGradient x1="16.5809112%" y1="13.9751699%" x2="83.8108839%" y2="87.1152982%" id="linearGradient-1">
            <stop stop-color="#FFFFFF" stop-opacity="0.52" offset="0%"></stop>
            <stop stop-color="#FFFFFF" stop-opacity="0.210546121" offset="21.7450014%"></stop>
            <stop stop-color="#FFFFFF" stop-opacity="0.0281905594" offset="50.0376246%"></stop>
            <stop stop-color="#FFFFFF" stop-opacity="0.228755953" offset="78.4153717%"></stop>
            <stop stop-color="#FFFFFF" stop-opacity="0.517892264" offset="100%"></stop>
        </linearGradient>
    </defs>
    <g id="页面-1" stroke="none" stroke-width="1" fill="none" fill-rule="evenodd">
        <g id="Live-action-hide-chat-ui" transform="translate(-340, -170)">
            <g id="hide" transform="translate(340, 170)">
                <circle id="椭圆形" stroke="url(#linearGradient-1)" fill-opacity="0.295782343" fill="#000000" cx="23" cy="23" r="22.5"></circle>
                <g id="编组-6" transform="translate(13, 13.8219)" fill="#FFFFFF" fill-rule="nonzero">
                    <path d="M4.17578838,0.294798151 L16.9254736,16.9875721 C17.1768963,17.3167522 17.1138615,17.7874237 16.7846814,18.0388464 C16.4555014,18.2902691 15.9848299,18.2272343 15.7334072,17.8980542 L2.98372195,1.20528024 C2.73229927,0.876100185 2.79533407,0.405428668 3.12451412,0.154005981 C3.45369418,-0.0974167046 3.9243657,-0.0343819032 4.17578838,0.294798151 Z M4.1895719,4.02096436 L5.10208458,5.2158759 C4.68401729,5.48209852 4.27838003,5.77895856 3.88903795,6.10331251 C2.46433211,7.29020953 1.5,8.71405926 1.5,9.17809166 C1.5,9.64212405 2.46433211,11.0659738 3.88903795,12.2528708 C5.70266642,13.7637723 7.86987918,14.6780917 10,14.6780917 C10.7035446,14.6780917 11.4111355,14.5783509 12.1086967,14.3903174 L13.0819357,15.6628649 C12.1111613,15.9862139 11.0754047,16.1780917 10,16.1780917 C4.4771525,16.1780917 0,11.1174341 0,9.17809166 C0,7.99963955 1.65316711,5.66865679 4.1895719,4.02096436 Z M10,2.17809166 C15.5228475,2.17809166 20,7.23874922 20,9.17809166 C20,10.3531414 18.356365,12.6740764 15.8323749,14.3209306 L14.9198376,13.1263122 C15.3301654,12.8636934 15.7284288,12.5715524 16.1109621,12.2528708 C17.5356679,11.0659738 18.5,9.64212405 18.5,9.17809166 C18.5,8.71405926 17.5356679,7.29020953 16.1109621,6.10331251 C14.2973336,4.59241098 12.1301208,3.67809166 10,3.67809166 C9.30552685,3.67809166 8.60711112,3.7752769 7.91829129,3.95863652 L6.94407379,2.68469172 C7.90733114,2.36655953 8.9341938,2.17809166 10,2.17809166 Z M6.89913128,7.56872439 L8.00749529,9.01904602 C8.00253285,9.07650605 8,9.1346609 8,9.19340733 C8,10.1761441 8.70879434,10.9933332 9.64305592,11.1616473 L10.7528476,12.6122395 C10.5103549,12.6653945 10.2584488,12.6934073 10,12.6934073 C8.06700338,12.6934073 6.5,11.126404 6.5,9.19340733 C6.5,8.60698346 6.64422184,8.05424441 6.89913128,7.56872439 Z M10,5.69340733 C11.9329966,5.69340733 13.5,7.26041071 13.5,9.19340733 C13.5,9.76223804 13.3643019,10.2993747 13.1235114,10.7742118 L11.9972663,9.29888483 C11.9990813,9.26395529 12,9.2287886 12,9.19340733 C12,8.2338433 11.3242381,7.43211192 10.4226509,7.23814983 L9.29686925,5.76405702 C9.52401647,5.71773147 9.75916763,5.69340733 10,5.69340733 Z" id="形状结合"></path>
                </g>
            </g>
        </g>
    </g>
</svg>