<?xml version="1.0" encoding="UTF-8"?>
<svg width="34px" height="34px" viewBox="0 0 34 34" version="1.1" xmlns="http://www.w3.org/2000/svg" xmlns:xlink="http://www.w3.org/1999/xlink">
    <title>play@3x</title>
    <defs>
        <linearGradient x1="60.9287768%" y1="9.57906621%" x2="27.9673316%" y2="100%" id="linearGradient-1">
            <stop stop-color="#FC56FF" offset="0%"></stop>
            <stop stop-color="#8355FF" offset="100%"></stop>
        </linearGradient>
    </defs>
    <g id="页面-1" stroke="none" stroke-width="1" fill="none" fill-rule="evenodd">
        <g id="Live-action-menu" transform="translate(-340, -525)">
            <g id="编组-62" transform="translate(0, 324)">
                <g id="play" transform="translate(340, 201)">
                    <rect id="矩形" fill="url(#linearGradient-1)" x="0" y="0" width="34" height="34" rx="8"></rect>
                    <g id="编组-3备份-24" opacity="0.803434" transform="translate(0, 9)" fill="#000000" fill-rule="nonzero">
                        <g id="编组" opacity="0.103771391">
                            <path d="M12,8 C12,8 8.93684211,7.70048 7.61557895,6.35264 C6.29368421,5.00544 6,0 6,0 C6,0 5.70694737,5.0048 4.38442105,6.35264 C3.06315789,7.70112 0,8 0,8 C0,8 3.06315789,8.29952 4.38442105,9.64672 C5.70631579,10.9952 6,16 6,16 C6,16 6.29368421,10.9952 7.61557895,9.64672 C8.93684211,8.29952 12,8 12,8 Z" id="路径"></path>
                        </g>
                        <g id="编组备份-2" opacity="0.103771391" transform="translate(11, 0)">
                            <path d="M12,8 C12,8 8.93684211,7.70048 7.61557895,6.35264 C6.29368421,5.00544 6,0 6,0 C6,0 5.70694737,5.0048 4.38442105,6.35264 C3.06315789,7.70112 0,8 0,8 C0,8 3.06315789,8.29952 4.38442105,9.64672 C5.70631579,10.9952 6,16 6,16 C6,16 6.29368421,10.9952 7.61557895,9.64672 C8.93684211,8.29952 12,8 12,8 Z" id="路径"></path>
                        </g>
                        <g id="编组备份-3" opacity="0.103771391" transform="translate(22, 0)">
                            <path d="M12,8 C12,8 8.93684211,7.70048 7.61557895,6.35264 C6.29368421,5.00544 6,0 6,0 C6,0 5.70694737,5.0048 4.38442105,6.35264 C3.06315789,7.70112 0,8 0,8 C0,8 3.06315789,8.29952 4.38442105,9.64672 C5.70631579,10.9952 6,16 6,16 C6,16 6.29368421,10.9952 7.61557895,9.64672 C8.93684211,8.29952 12,8 12,8 Z" id="路径"></path>
                        </g>
                    </g>
                    <path d="M19,19.1 C22.4,19.4 25,20.6 25,22 C25,23.7 21.4,25 17,25 C12.6,25 9,23.7 9,22 C9,20.6 11.6,19.4 15,19.1 L15,20.1 C12.7,20.3 11,20.8 11,21.5 C11,22.3 13.7,23 17,23 C20.3,23 23,22.3 23,21.5 C23,20.9 21.3,20.3 19,20.1 Z M17,9 C19.2,9 21,10.8 21,13 C21,14.9 19.7,16.5 18,16.9 L18,21 C18,21.6 17.6,22 17,22 C16.4,22 16,21.6 16,21 L16,16.9 C14.3,16.4 13,14.9 13,13 C13,10.8 14.8,9 17,9 Z M18,10.2 L18,11.3 C18.3,11.5 18.5,11.7 18.7,12 L19.8,12 C19.5,11.2 18.8,10.5 18,10.2 Z" id="形状结合" fill="#FFFFFF" fill-rule="nonzero"></path>
                </g>
            </g>
        </g>
    </g>
</svg>