<?xml version="1.0" encoding="UTF-8"?>
<svg width="24px" height="24px" viewBox="0 0 24 24" version="1.1" xmlns="http://www.w3.org/2000/svg" xmlns:xlink="http://www.w3.org/1999/xlink">
    <title>random@3x</title>
    <defs>
        <linearGradient x1="71.0986922%" y1="106.308955%" x2="80.8115821%" y2="1.92172715%" id="linearGradient-1">
            <stop stop-color="#F463B6" offset="0%"></stop>
            <stop stop-color="#AFA7FC" offset="100%"></stop>
        </linearGradient>
    </defs>
    <g id="页面-1" stroke="none" stroke-width="1" fill="none" fill-rule="evenodd">
        <g id="Live-action-menu-diy-generating" transform="translate(-20, -820)">
            <g id="编组-58" transform="translate(12, 806)">
                <g id="random" transform="translate(8, 14)">
                    <rect id="矩形" x="0" y="0" width="24" height="24"></rect>
                    <path d="M13.0909091,7.02003146 C14.8983865,7.02003146 16.3636364,8.48528137 16.3636364,10.2927587 L16.3636364,19.0200315 C16.3636364,20.8275088 14.8983865,22.2927587 13.0909091,22.2927587 L4.36363636,22.2927587 C2.556159,22.2927587 1.09090909,20.8275088 1.09090909,19.0200315 L1.09090909,10.2927587 C1.09090909,8.48528137 2.556159,7.02003146 4.36363636,7.02003146 L13.0909091,7.02003146 Z M13.0909091,8.62003146 L4.36363636,8.62003146 C3.4398146,8.62003146 2.69090909,9.36893697 2.69090909,10.2927587 L2.69090909,19.0200315 C2.69090909,19.9438532 3.4398146,20.6927587 4.36363636,20.6927587 L13.0909091,20.6927587 C14.0147309,20.6927587 14.7636364,19.9438532 14.7636364,19.0200315 L14.7636364,10.2927587 C14.7636364,9.36893697 14.0147309,8.62003146 13.0909091,8.62003146 Z M6.05531777,16.0688373 C6.80843333,16.0688373 7.41895413,16.6793581 7.41895413,17.4324736 C7.41895413,18.1855892 6.80843333,18.79611 6.05531777,18.79611 C5.3022022,18.79611 4.6916814,18.1855892 4.6916814,17.4324736 C4.6916814,16.6793581 5.3022022,16.0688373 6.05531777,16.0688373 Z M17.1105826,1.41788684 L22.4001086,6.7074129 C23.804506,8.11181022 23.8363807,10.3696563 22.4553344,11.7507025 L18.9839564,15.2220805 C18.671537,15.5345 18.165005,15.5345 17.8525855,15.2220805 C17.5401661,14.9096611 17.5401661,14.4031291 17.8525855,14.0907097 L21.3239635,10.6193317 C22.07291,9.87038521 22.0553339,8.62537985 21.2687378,7.83878375 L15.9792117,2.54925769 C15.1926156,1.76266159 13.9476103,1.74508547 13.1986638,2.49403195 L10.0428816,5.64981415 C9.73046214,5.96223359 9.22393016,5.96223359 8.91151073,5.64981415 C8.59909129,5.33739472 8.59909129,4.83086274 8.91151073,4.5184433 L12.0672929,1.3626611 C13.4483392,-0.0183851814 15.7061853,0.0134895188 17.1105826,1.41788684 Z M11.413208,10.2927587 C12.1663236,10.2927587 12.7768444,10.9032795 12.7768444,11.6563951 C12.7768444,12.4095107 12.1663236,13.0200315 11.413208,13.0200315 C10.6600925,13.0200315 10.0495717,12.4095107 10.0495717,11.6563951 C10.0495717,10.9032795 10.6600925,10.2927587 11.413208,10.2927587 Z M18.9466456,7.97384446 C19.6093873,7.97384446 20.1466456,8.51110276 20.1466456,9.17384446 C20.1466456,9.83658616 19.6093873,10.3738445 18.9466456,10.3738445 C18.2839039,10.3738445 17.7466456,9.83658616 17.7466456,9.17384446 C17.7466456,8.51110276 18.2839039,7.97384446 18.9466456,7.97384446 Z M14.5830092,3.61020809 C15.2457509,3.61020809 15.7830092,4.14746639 15.7830092,4.81020809 C15.7830092,5.47294979 15.2457509,6.01020809 14.5830092,6.01020809 C13.9202675,6.01020809 13.3830092,5.47294979 13.3830092,4.81020809 C13.3830092,4.14746639 13.9202675,3.61020809 14.5830092,3.61020809 Z" id="形状结合" fill="url(#linearGradient-1)" fill-rule="nonzero"></path>
                </g>
            </g>
        </g>
    </g>
</svg>