<svg xmlns="http://www.w3.org/2000/svg" viewBox="0 0 22 22"><path transform="translate(1.22 1.46)" fill-rule="evenodd" fill="#dcdadc" d="M14.99 -0.14H14.99A0.70 0.70 0 0 1 15.70 0.56V3.34A0.70 0.70 0 0 1 14.99 4.05H14.99A0.70 0.70 0 0 1 14.29 3.34V0.56A0.70 0.70 0 0 1 14.99 -0.14ZM18.03 3.70H18.03A0.71 0.71 0 0 1 18.74 4.41V7.13A0.71 0.71 0 0 1 18.03 7.84H18.03A0.71 0.71 0 0 1 17.32 7.13V4.41A0.71 0.71 0 0 1 18.03 3.70ZM7.49 10.66L7.49 15.04C7.49 15.68 7.91 16.11 8.56 16.11C9.20 16.11 9.63 15.68 9.63 15.04L9.63 10.66C11.44 10.23 12.83 8.52 12.83 6.49C12.83 4.13 10.91 2.21 8.56 2.21C6.20 2.21 4.28 4.13 4.28 6.49C4.28 8.52 5.67 10.12 7.49 10.66ZM9.63 3.49C10.48 3.81 11.23 4.56 11.55 5.42L10.37 5.42C10.16 5.10 9.95 4.88 9.63 4.67L9.63 3.49ZM10.69 13.01L10.69 14.08C13.15 14.29 14.97 14.94 14.97 15.58C14.97 16.43 12.08 17.18 8.56 17.18C5.03 17.18 2.14 16.43 2.14 15.58C2.14 14.83 3.96 14.29 6.42 14.08L6.42 13.01C2.78 13.33 0.00 14.61 0.00 16.11C0.00 17.93 3.85 19.32 8.56 19.32C13.26 19.32 17.11 17.93 17.11 16.11C17.11 14.61 14.33 13.33 10.69 13.01L10.69 13.01Z"/></svg>