<?xml version="1.0" encoding="UTF-8"?>
<svg width="34px" height="34px" viewBox="0 0 34 34" version="1.1" xmlns="http://www.w3.org/2000/svg" xmlns:xlink="http://www.w3.org/1999/xlink">
    <title>unlock3@3x</title>
    <defs>
        <linearGradient x1="74.1021849%" y1="-4.42720795%" x2="50%" y2="100%" id="linearGradient-1">
            <stop stop-color="#F74858" offset="0%"></stop>
            <stop stop-color="#E15CAE" offset="100%"></stop>
        </linearGradient>
    </defs>
    <g id="页面-1" stroke="none" stroke-width="1" fill="none" fill-rule="evenodd">
        <g id="Live-action-menu" transform="translate(-278, -717)">
            <g id="编组-62" transform="translate(0, 324)">
                <g id="unlock3" transform="translate(278, 393)">
                    <rect id="矩形" fill="url(#linearGradient-1)" x="0" y="0" width="34" height="34" rx="8"></rect>
                    <g id="编组-22备份" transform="translate(7, 7)">
                        <rect id="矩形" x="0" y="0" width="20" height="20"></rect>
                        <g id="编组-20" transform="translate(2.257, 1.3196)" fill="#FFFFFF">
                            <path d="M7.78556576,0 C10.3526343,0 12.4439972,2.03673753 12.5318404,4.58239829 C12.668568,4.62724051 12.8065537,4.68226965 12.9444886,4.74604167 C15.5332659,5.94292241 16.3637549,9.1885498 14.6766513,11.6269473 C13.6381379,13.1279271 11.5880955,14.9775342 8.52666923,17.1759717 C8.06290078,17.5084253 7.43534319,17.4948091 6.98643096,17.142553 C3.8619414,14.6878069 1.82944051,12.8496048 0.88971235,11.6269473 C-0.630479811,9.64906237 -0.283752771,5.89136876 2.56036137,4.74604167 C2.69277829,4.69271727 2.82437331,4.64590083 2.95514645,4.60559234 L2.95137971,4.79166667 C2.95137971,2.14530224 5.09668195,0 7.74304637,0 L7.78556576,0 Z M7.77794918,8.84161363 L7.75243731,8.84580035 C7.71458097,8.85855721 7.69153799,8.92810264 7.64545203,9.06801654 C7.4537015,9.65236283 7.35700327,9.94412446 7.17595126,10.1758054 C7.09242045,10.2823869 6.99654518,10.3786806 6.88997139,10.4622174 C6.65830712,10.6432824 6.36615502,10.7395761 5.78185082,10.9313405 C5.64235848,10.9774298 5.57281805,11.0004744 5.55965064,11.0383335 C5.55419053,11.0547636 5.55419053,11.0725192 5.55965064,11.0889494 C5.57281805,11.1272199 5.64235848,11.1502646 5.78185082,11.1959424 C6.36615502,11.3881182 6.65830712,11.4844119 6.88997139,11.6658885 C6.99663174,11.7493081 7.09279585,11.845341 7.17636274,11.9518889 C7.35741474,12.1831584 7.45370149,12.4753315 7.64545203,13.0596778 C7.69153799,13.1995917 7.71458098,13.2691372 7.75243731,13.281894 C7.76899218,13.2874461 7.78690618,13.2874461 7.80346105,13.281894 C7.84131738,13.2691372 7.86436036,13.1995917 7.91044633,13.0596778 C8.10219687,12.475743 8.19848361,12.1835699 8.37953562,11.9518889 C8.46306642,11.8453075 8.5589417,11.7490138 8.66592697,11.665477 C8.89717975,11.4844119 9.18933185,11.3881182 9.77363605,11.1963539 C9.91353987,11.1502646 9.98308029,11.1272199 9.99583623,11.0893609 C10.0013879,11.0728048 10.0013879,11.0548895 9.99583623,11.0383335 C9.98308029,11.0004744 9.91353987,10.9774298 9.77363605,10.9313405 C9.18933186,10.7395761 8.89717976,10.6432824 8.66592697,10.4622174 C8.55935317,10.3786806 8.46306642,10.2823869 8.37953562,10.1758054 C8.19848361,9.94453598 8.10219687,9.65236284 7.91044633,9.06801654 C7.86436036,8.92810264 7.84131737,8.85855721 7.80346105,8.84580035 L7.77794918,8.84161363 Z M7.78556576,1.25 L7.74304637,1.25 C5.91234468,1.25 4.40606208,2.63900327 4.22058283,4.42062556 C5.47793295,4.44513203 6.65177131,5.12490162 7.74304637,6.45843239 C8.92160371,5.14607763 10.0965155,4.46038048 11.2677816,4.40134093 C11.0931714,2.63220077 9.60078374,1.25 7.78556576,1.25 Z" id="形状结合"></path>
                        </g>
                    </g>
                </g>
            </g>
        </g>
    </g>
</svg>