<?xml version="1.0" encoding="UTF-8"?>
<svg width="46px" height="46px" viewBox="0 0 46 46" version="1.1" xmlns="http://www.w3.org/2000/svg" xmlns:xlink="http://www.w3.org/1999/xlink">
    <title>voice@3x</title>
    <defs>
        <linearGradient x1="16.5809112%" y1="13.9751699%" x2="83.8108839%" y2="87.1152982%" id="linearGradient-1">
            <stop stop-color="#FFFFFF" stop-opacity="0.52" offset="0%"></stop>
            <stop stop-color="#FFFFFF" stop-opacity="0.210546121" offset="21.7450014%"></stop>
            <stop stop-color="#FFFFFF" stop-opacity="0.0281905594" offset="50.0376246%"></stop>
            <stop stop-color="#FFFFFF" stop-opacity="0.228755953" offset="78.4153717%"></stop>
            <stop stop-color="#FFFFFF" stop-opacity="0.517892264" offset="100%"></stop>
        </linearGradient>
    </defs>
    <g id="页面-1" stroke="none" stroke-width="1" fill="none" fill-rule="evenodd">
        <g id="Live-action" transform="translate(-340, -112)">
            <g id="voice" transform="translate(340, 112)">
                <circle id="椭圆形" stroke="url(#linearGradient-1)" fill-opacity="0.295782343" fill="#000000" cx="23" cy="23" r="22.5"></circle>
                <g id="编组-3" transform="translate(13, 15.8455)" fill="#FFFFFF">
                    <path d="M0.888888889,3.91608278 L3.51769448,3.91608278 L3.51769448,3.91608278 L7.87314258,0.173421794 C8.17385018,-0.0849779311 8.62709622,-0.0506806237 8.88549595,0.250026975 C8.99738324,0.380233609 9.05890514,0.546225402 9.05890514,0.717901066 L9.05890514,13.5866569 C9.05890514,13.9831358 8.73749553,14.3045454 8.34101668,14.3045454 C8.16881249,14.3045454 8.00234574,14.2426448 7.87197868,14.1301339 L3.51769448,10.3722473 L3.51769448,10.3722473 L0.888888889,10.3722473 C0.397969111,10.3722473 3.80362408e-13,9.97427817 2.88657986e-13,9.48335839 L6.20503648e-13,4.80497166 C6.20392626e-13,4.31405189 0.397969111,3.91608278 0.888888889,3.91608278 Z M11.668492,3.90442053 C11.9906962,3.69077705 12.4250865,3.77878285 12.63873,4.10098699 L12.7746771,4.30601426 C14.1281825,6.34728902 14.0665521,9.01569936 12.6202484,10.9923089 C12.3919573,11.304306 11.9539671,11.372163 11.64197,11.1438718 C11.3299729,10.9155807 11.2621159,10.4775905 11.4904071,10.1655934 C12.5905331,8.66209197 12.6374121,6.63237456 11.6078727,5.07968572 L11.4719256,4.87465845 C11.2582821,4.55245431 11.3462879,4.118064 11.668492,3.90442053 Z M15.3022992,1.22329696 C15.6324877,1.02221335 16.0631688,1.1268735 16.2642524,1.45706196 L16.3462575,1.59171801 C18.4764979,5.08966982 18.4425276,9.49216949 16.2585628,12.9568323 C16.0524078,13.2838785 15.620163,13.3818802 15.2931168,13.1757253 C14.9660707,12.9695703 14.868069,12.5373255 15.0742239,12.2102793 C16.9747967,9.19519233 17.004359,5.36396256 15.1505393,2.3199062 L15.0685342,2.18525014 C14.8674506,1.85506168 14.9721108,1.42438057 15.3022992,1.22329696 Z" id="形状结合"></path>
                </g>
            </g>
        </g>
    </g>
</svg>