<?xml version="1.0" encoding="UTF-8"?>
<svg width="32px" height="32px" viewBox="0 0 32 32" version="1.1" xmlns="http://www.w3.org/2000/svg" xmlns:xlink="http://www.w3.org/1999/xlink">
    <title>back@3x</title>
    <defs>
        <linearGradient x1="16.1296717%" y1="13.0707928%" x2="80.1007211%" y2="92.2109789%" id="linearGradient-1">
            <stop stop-color="#FFFFFF" stop-opacity="0.3" offset="0%"></stop>
            <stop stop-color="#FFFFFF" stop-opacity="0.0676354895" offset="15.6726479%"></stop>
            <stop stop-color="#FFFFFF" stop-opacity="0.02" offset="55.579789%"></stop>
            <stop stop-color="#FFFFFF" stop-opacity="0.0675262238" offset="82.5273801%"></stop>
            <stop stop-color="#FFFFFF" stop-opacity="0.3" offset="100%"></stop>
        </linearGradient>
    </defs>
    <g id="页面-1" stroke="none" stroke-width="1" fill="none" fill-rule="evenodd">
        <g id="Create6" transform="translate(-16, -58)" fill="#FFFFFF">
            <g id="bar" transform="translate(0, 54)">
                <g id="back" transform="translate(16, 4)">
                    <circle id="椭圆形" stroke="url(#linearGradient-1)" fill-opacity="0.0978747815" cx="16" cy="16" r="15.5"></circle>
                    <g id="编组-29" transform="translate(10, 10)">
                        <path d="M5.80311441,0.163459445 C6.07272831,0.398258073 6.09407741,0.799546811 5.85079896,1.05976293 L2.391,4.76 L11.1891033,4.76086947 C11.6369492,4.76086947 12,5.12392026 12,5.57176612 C12,6.01961197 11.6369492,6.38266277 11.1891033,6.38266277 L2.288,6.382 L5.83540179,9.92433002 C6.05974277,10.1483379 6.07907992,10.4906672 5.89722133,10.7350534 L5.81960074,10.8216847 C5.55849046,11.0652711 5.14222142,11.0584433 4.88983782,10.8064344 L0.184755121,6.10833709 C-0.0555248399,5.86841386 -0.0622535157,5.48988122 0.169357954,5.24214437 L4.87444065,0.20948188 C5.1177191,-0.0507342369 5.53350051,-0.0713391827 5.80311441,0.163459445 Z" id="形状结合"></path>
                    </g>
                </g>
            </g>
        </g>
    </g>
</svg>