<?xml version="1.0" encoding="UTF-8"?>
<svg width="20px" height="20px" viewBox="0 0 20 20" version="1.1" xmlns="http://www.w3.org/2000/svg" xmlns:xlink="http://www.w3.org/1999/xlink">
    <title>Private@3x</title>
    <g id="页面-1" stroke="none" stroke-width="1" fill="none" fill-rule="evenodd">
        <g id="Create_result" transform="translate(-16, -342)">
            <g id="Private" transform="translate(16, 342)">
                <rect id="矩形" x="0" y="0" width="20" height="20"></rect>
                <path d="M7.33796875,8.50161356 L7.33796875,8.37348998 C7.33796875,7.57433288 7.59074653,6.92670749 8.07963542,6.480528 C8.56574653,6.03698255 9.23980903,5.83333333 10,5.83333333 C10.760191,5.83333333 11.4342535,6.03698255 11.9203646,6.480528 C12.4092535,6.92670749 12.6620312,7.57433288 12.6620312,8.37348998 L12.6620312,8.50161356 C13.5342535,8.80908362 14.1666667,9.64225129 14.1666667,10.6265034 C14.1666667,12.3220119 12.7925868,13.3000848 11.6222222,14.1328218 C11.5009201,14.2193971 11.3814757,14.3042164 11.2657465,14.3881578 C10.8333333,14.7031324 10.4166667,15 10,15 C9.58333333,15 9.16666667,14.7031324 8.73425347,14.3881578 C8.61592014,14.3024107 8.49710069,14.2173098 8.37777778,14.1328218 C7.20741319,13.3000848 5.83333333,12.3215647 5.83333333,10.6260727 C5.83333333,9.64269858 6.46574653,8.80996163 7.33796875,8.50161356 Z M8.03241319,8.37348998 C8.03241319,7.70863567 8.23935764,7.25185377 8.55972222,6.95984004 C8.88241319,6.66474498 9.36527778,6.49598433 10,6.49598433 C10.6342535,6.49598433 11.1175868,6.66474498 11.4402778,6.95984004 C11.7606424,7.25185377 11.9675868,7.70863567 11.9675868,8.37348998 C11.3356424,8.35935895 10.6435243,8.60896302 10,9.22655375 C9.35647569,8.60896302 8.66435764,8.35980624 8.03241319,8.37348998 Z M10,10.2510122 C10.0920833,10.2510122 10.1803993,10.2859173 10.2455208,10.3480574 C10.3106424,10.410181 10.3472222,10.4944536 10.3472222,10.5823377 L10.3472222,11.686745 C10.3472222,11.7746291 10.3106424,11.8589017 10.2455208,11.9210253 C10.1803993,11.9831654 10.0920833,12.0180705 10,12.0180705 C9.90791667,12.0180705 9.81960069,11.9831654 9.75447917,11.9210253 C9.68935764,11.8589017 9.65277778,11.7746291 9.65277778,11.686745 L9.65277778,10.5823377 C9.65277778,10.4944536 9.68935764,10.410181 9.75447917,10.3480574 C9.81960069,10.2859173 9.90791667,10.2510122 10,10.2510122 Z" id="形状" fill="#C544CA"></path>
                <path d="M9.52308943,1.51428828 C10.1218207,1.375 10.2729175,1.41233727 10.4051912,1.49206875 C10.495626,1.54625207 10.6367754,1.65345033 10.8160205,1.78704251 C11.5141262,2.30734362 12.6930855,3.16333263 13.7397194,3.3940174 C14.1625519,3.48688145 14.5956013,3.63626599 14.9909515,3.77150697 C15.5709697,3.96991898 16.0837103,4.12817545 16.4178735,4.12817545 C16.6933243,4.12817545 16.8917691,4.11969118 16.9762171,4.11491953 C17.2288153,4.11519789 17.4284258,4.16981741 17.5786461,4.29615445 C17.7094635,4.40546517 17.7916667,4.55630523 17.7916667,4.71911873 L17.7916667,7.11843886 C17.7916667,10.586633 16.9351057,13.0323872 15.7760838,14.7464185 C13.7040397,17.8106819 10.6858778,18.5053502 10.1740327,18.6035602 C9.52905432,18.5315466 6.45257211,17.8886721 4.32737058,14.891582 C3.10794239,13.1718693 2.20833333,10.6861842 2.20833333,7.11843886 L2.20833333,4.71911873 C2.20833333,4.55626532 2.29006846,4.40522311 2.42084983,4.29574279 C2.56230797,4.17725585 2.74851978,4.11515922 2.93964307,4.11310953 C3.1222418,4.12058565 3.31264664,4.12817545 3.58160576,4.12817545 C3.91599685,4.12817545 4.43701329,3.96870365 5.02450915,3.76979326 C5.42277202,3.6349521 5.85772181,3.48650005 6.2789241,3.39394513 C7.68791419,3.08358001 9.13420338,1.85540492 9.52308943,1.51428828 Z" id="形状" stroke="#C544CA" stroke-width="1.08333333" fill-rule="nonzero"></path>
            </g>
        </g>
    </g>
</svg>